<svg class="icon" viewBox="0 0 1024 1024" xmlns="http://www.w3.org/2000/svg" width="200" height="200">
  <path d="M899.994 258.56H688.435v-48.947c0-59.392-48.333-107.725-107.725-107.725H436.992c-59.392 0-107.725 48.333-107.725 107.725v48.947H131.123c-19.814 0-35.84 16.026-35.84 35.84s16.026 35.84 35.84 35.84h58.675v434.227c0 80.691 65.639 146.279 146.279 146.279h346.265c80.692 0 146.279-65.639 146.279-146.279V330.24h71.321c19.815 0 35.84-16.026 35.84-35.84s-15.974-35.84-35.788-35.84zm-499.047-48.947c0-19.866 16.18-36.045 36.045-36.045h143.77c19.865 0 36.044 16.18 36.044 36.045v48.947H400.947v-48.947zm356.045 554.803c0 41.165-33.485 74.598-74.598 74.598H336.128c-41.165 0-74.598-33.484-74.598-74.598V330.24h495.513v434.176z" />
  <path d="M412.928 439.603c-19.814 0-35.84 16.026-35.84 35.84v219.239c0 19.814 16.026 35.84 35.84 35.84s35.84-16.026 35.84-35.84V475.443c0-19.814-16.026-35.84-35.84-35.84zm188.518 0c-19.814 0-35.84 16.026-35.84 35.84v219.239c0 19.814 16.026 35.84 35.84 35.84s35.84-16.026 35.84-35.84V475.443c0-19.814-16.076-35.84-35.84-35.84z" />
</svg>
