<?xml version="1.0" standalone="no"?><!DOCTYPE svg PUBLIC "-//W3C//DTD SVG 1.1//EN"
  "http://www.w3.org/Graphics/SVG/1.1/DTD/svg11.dtd">
<svg t="1721876569915"
  class="icon"
  viewBox="0 0 1024 1024"
  version="1.1"
  xmlns="http://www.w3.org/2000/svg"
  p-id="33917"
  width="200"
  height="200">
  <path d="M364.032 369.578667V157.653333A29.44 29.44 0 0 1 393.557333 128h472.789334a29.44 29.44 0 0 1 29.269333 29.653333L896 622.037333a29.44 29.44 0 0 1-29.184 29.994667l-207.232 1.578667v44.885333h-58.538667v-44.458667l-19.2 0.170667a29.653333 29.653333 0 0 1 0-59.306667l255.701334-2.133333V187.178667H422.229333l0.384 242.517333a29.269333 29.269333 0 1 1-58.581333 0v-2.773333h-40.917333V369.578667h40.96z m-40.917333 469.077333h130.090666V896H323.114667v-57.344z m267.605333-74.282667h57.472v65.28a65.621333 65.621333 0 0 1-65.024 65.706667h-64.426667v-57.301333h71.978667v-73.685334z m-332.629333 73.685334v57.813333H193.024A65.621333 65.621333 0 0 1 128 830.122667v-65.749334h58.069333v73.685334H258.133333zM184.746667 501.205333L128 501.077333v-65.749333a65.621333 65.621333 0 0 1 65.024-65.749333H258.133333L256 428.373333H184.746667v72.832zM128 566.954667h58.538667v131.626666H128v-131.626666z m357.376 145.450666a29.44 29.44 0 0 1-30.122667 29.653334l-165.504-5.418667a29.013333 29.013333 0 0 1-20.394666-9.386667 29.781333 29.781333 0 0 1-7.936-21.205333l5.418666-168.021333a29.269333 29.269333 0 1 1 58.453334 1.450666l-3.114667 96 247.296-234.581333a29.013333 29.013333 0 0 1 41.386667 1.28 29.866667 29.866667 0 0 1-1.28 41.898667L362.24 678.912l94.805333 3.114667a29.44 29.44 0 0 1 28.330667 30.378666z"></path>
</svg>
