<svg xmlns="http://www.w3.org/2000/svg" class="icon" viewBox="0 0 1024 1024">
  <path fill="currentColor"
    d="M426.667 170.667h-256A85.04 85.04 0 0 0 85.333 256v512c0 46.805 38.528 85.333 85.334 85.333h682.666c46.806 0 85.334-38.528 85.334-85.333V341.333A85.333 85.333 0 0 0 853.333 256H512z" />
  <path fill="#FFB300"
    d="M550.827 607.573h102.485l-72.619-72.618a50.22 50.22 0 0 1-50.133-50.432 50.133 50.133 0 0 1 50.133-50.134c27.947 0 50.432 22.486 50.432 50.134l72.619 72.618V454.656a50.43 50.43 0 0 1 0-70.955 49.62 49.62 0 0 1 70.699 0 50.43 50.43 0 0 1 0 70.955v102.485l72.874-72.618a50.176 50.176 0 0 1 100.267 0c0 27.946-22.443 50.432-50.133 50.432l-72.619 72.618h102.485a50.43 50.43 0 0 1 70.998 0 49.62 49.62 0 0 1 0 70.699 50.43 50.43 0 0 1-70.998 0H824.832l72.619 72.875c27.733 0 50.176 22.186 50.176 50.176a50.133 50.133 0 0 1-50.176 50.133 50.005 50.005 0 0 1-50.134-50.133l-72.874-72.619v102.485a50.43 50.43 0 0 1 0 70.955 49.62 49.62 0 0 1-70.699 0 50.43 50.43 0 0 1 0-70.955V728.704l-72.619 72.619c0 27.648-22.485 50.133-50.432 50.133a50.176 50.176 0 0 1 0-100.267l72.619-72.917H550.827a50.43 50.43 0 0 1-70.955 0 49.62 49.62 0 0 1 0-70.699 50.43 50.43 0 0 1 70.955 0" />
</svg>
