<svg xmlns="http://www.w3.org/2000/svg" fill="currentColor" class="icon" viewBox="0 0 1024 1024"><path d="M288 896H160c-17.6 0-32-14.4-32-32V736c0-17.6 14.4-32 32-32s32 14.4 32 32v96h96c17.6 0 32 14.4 32 32s-14.4 32-32 32M160 320c-17.6 0-32-14.4-32-32V160c0-17.6 14.4-32 32-32h128c17.6 0 32 14.4 32 32s-14.4 32-32 32h-96v96c0 17.6-14.4 32-32 32m704 576H736c-17.6 0-32-14.4-32-32s14.4-32 32-32h96v-96c0-17.6 14.4-32 32-32s32 14.4 32 32v128c0 17.6-14.4 32-32 32m0-576c-17.6 0-32-14.4-32-32v-96h-96c-17.6 0-32-14.4-32-32s14.4-32 32-32h128c17.6 0 32 14.4 32 32v128c0 17.6-14.4 32-32 32"/></svg>