<svg xmlns="http://www.w3.org/2000/svg" fill="currentColor" class="icon" viewBox="0 0 1024 1024">
  <path d="M540.0319999999999 266.8586666666667V867.8186666666666A29.12 29.12 0 0 1 510.0160000000001 896.8746666666666 29.12 29.12 0 0 1 479.93600000000015 867.8186666666666V266.85866666666664L260.032 500.84266666666673A26.75 26.75 0 0 1 238.97599999999997 509.8666666666667 27.65 27.65 0 0 1 217.47199999999998 500.33066666666673 32.64 32.64 0 0 1 208.95999999999998 477.86666666666673C208.95999999999998 469.22666666666674 211.968 461.54666666666674 217.92 454.8266666666667L488.9600000000001 166.82666666666663A26.75 26.75 0 0 1 509.952 157.86666666666665C518.592 157.86666666666665 525.6319999999998 160.87466666666663 530.9439999999998 166.82666666666665L801.9839999999998 454.82666666666677C807.9359999999998 461.5466666666668 810.9439999999998 469.22666666666674 810.9439999999998 477.8666666666668A32.64 32.64 0 0 1 802.4319999999999 500.3306666666668 27.07 27.07 0 0 1 781.4399999999999 509.8666666666667 29.44 29.44 0 0 1 759.9359999999999 500.90666666666675L540.0319999999999 266.79466666666667Z" />
</svg>
