<svg xmlns="http://www.w3.org/2000/svg" class="icon" viewBox="0 0 1024 1024" fill="currentColor"><path d="M755.008 480H160a31.17 31.17 0 0 0-23.04 8.96A31.17 31.17 0 0 0 128 512c0 9.344 3.008 17.024 8.96 23.04 6.016 5.952 13.696 8.96 23.04 8.96h595.008L520.96 776.96A33.4 33.4 0 0 0 512 800c0 8.64 3.2 16.128 9.536 22.464A30.72 30.72 0 0 0 544 832a33.4 33.4 0 0 0 23.04-8.96l288-288A33.4 33.4 0 0 0 864 512a33.4 33.4 0 0 0-8.96-23.04l-288-288A33.4 33.4 0 0 0 544 192a30.72 30.72 0 0 0-22.464 9.472A30.72 30.72 0 0 0 512 224c0 8.64 3.008 16.32 8.96 23.04z"/></svg>
