<svg xmlns="http://www.w3.org/2000/svg" fill="currentColor" class="icon" viewBox="0 0 1024 1024">
  <path d="M544 774.016V136A31.17 31.17 0 0 0 535.04 112.96000000000001 31.17 31.17 0 0 0 512 104 31.17 31.17 0 0 0 488.96 112.96000000000001 31.17 31.17 0 0 0 480 136V774.016L247.04 526.016A31.62 31.62 0 0 0 224 516.0319999999999 29.44 29.44 0 0 0 201.472 526.4639999999999 34.1 34.1 0 0 0 192 549.952C192 558.656 195.008 566.592 200.96 574.016L488.96 880A31.62 31.62 0 0 0 512 889.984 31.62 31.62 0 0 0 535.04 880L823.04 574.0160000000001A37.12 37.12 0 0 0 832 550.0160000000001 34.1 34.1 0 0 0 822.464 526.528 29.44 29.44 0 0 0 800 515.968 31.62 31.62 0 0 0 776.96 526.016Z" />
</svg>
