<?xml version="1.0" standalone="no"?><!DOCTYPE svg PUBLIC "-//W3C//DTD SVG 1.1//EN"
  "http://www.w3.org/Graphics/SVG/1.1/DTD/svg11.dtd">
<svg t="1721876700977"
  class="icon"
  viewBox="0 0 1025 1024"
  version="1.1"
  xmlns="http://www.w3.org/2000/svg"
  p-id="40085"
  width="200.1953125"
  height="200">
  <path d="M593 311c39.765 0 72 32.235 72 72v456c0 39.765-32.235 72-72 72H137c-39.765 0-72-32.235-72-72V383c0-39.765 32.235-72 72-72h456z m-32 72H169c-17.496 0-31.713 14.042-32 31.47V807c0 17.496 14.042 31.713 31.47 32H561c17.496 0 31.713-14.042 32-31.47V415c0-17.673-14.327-32-32-32z m227 258v72h-92v-72h92z m172-37v37c0 39.765-32.235 72-72 72h-48v-72h16c17.496 0 31.713-14.042 32-31.47V604h72z m0-154v92h-72v-92h72z m0-144v92h-72v-92h72zM480 113v72h-16c-17.496 0-31.713 14.042-32 31.47V264h-72v-79c0-39.765 32.235-72 72-72h48z m408 0c39.765 0 72 32.235 72 72v59h-72v-27c0-17.496-14.042-31.713-31.47-32H840v-72h48z m-254 0v72h-93v-72h93z m144 0v72h-92v-72h92z"
    p-id="40086"></path>
</svg>
