<svg xmlns="http://www.w3.org/2000/svg" fill="currentColor" class="icon" viewBox="0 0 1024 1024">
  <path d="M136.953125 398.09375C120.5 398.09375 107.421875 385.015625 107.421875 368.5625V311.1875C107.421875 198.546875 199.390625 106.578125 312.03125 106.578125H389.65625C406.109375 106.578125 419.1875 119.65625 419.1875 136.109375S406.109375 165.640625 389.65625 165.640625H312.03125C231.875 165.640625 166.484375 231.03125 166.484375 311.1875V368.5625C166.484375 385.015625 153.40625 398.09375 136.953125 398.09375M366.453125 920.796875H312.03125C199.390625 920.796875 107.421875 828.828125 107.421875 716.1875V632.234375C107.421875 615.78125 120.5 602.703125 136.953125 602.703125S166.484375 615.78125 166.484375 632.234375V716.1875C166.484375 796.34375 231.875 861.734375 312.03125 861.734375H366.453125C382.90625 861.734375 395.984375 874.8125 395.984375 891.265625S382.90625 920.796875 366.453125 920.796875M717.03125 920.796875H651.21875C634.765625 920.796875 621.6875 907.71875 621.6875 891.265625S634.765625 861.734375 651.21875 861.734375H717.03125C797.1875 861.734375 862.578125 796.34375 862.578125 716.1875V619.578125C862.578125 603.125 875.65625 590.046875 892.109375 590.046875S921.640625 603.125 921.640625 619.578125V716.1875C921.640625 828.828125 829.671875 920.796875 717.03125 920.796875M892.109375 410.75C875.65625 410.75 862.578125 397.671875 862.578125 381.21875V311.1875C862.578125 231.03125 797.1875 165.640625 717.03125 165.640625H630.125C613.671875 165.640625 600.59375 152.5625 600.59375 136.109375S613.671875 106.578125 630.125 106.578125H717.03125C829.671875 106.578125 921.640625 198.546875 921.640625 311.1875V381.21875C921.640625 397.671875 908.5625 410.75 892.109375 410.75" />
</svg>
