<svg xmlns="http://www.w3.org/2000/svg" fill="currentColor" class="icon" viewBox="0 0 1024 1024">
  <path d="M854.80062867 432.914917C831.38739013 432.914917 810.34719849 443.09182739 795.84524536 459.28045654H639.33621216L749.99600219 348.62149048A79.09909058 79.09909058 0 1 0 675.40570068 274.03118896L564.74591065 384.69097901V228.18029785A79.09909058 79.09909058 0 1 0 459.28128052 228.18029785V384.69097901L348.62231445 274.03118896A79.09909058 79.09909058 0 1 0 274.03201294 348.62149048L384.69180297 459.28128052H228.18029785A79.09909058 79.09909058 0 1 0 228.18029785 564.74591065H384.69097901L274.03118896 675.40487671A79.09909058 79.09909058 0 1 0 348.62149048 749.99517823L459.28128052 639.33538818V795.84606933A79.09909058 79.09909058 0 1 0 564.74591065 795.81970215V639.30902099L675.40487671 749.96881104A79.09909058 79.09909058 0 1 0 749.99517823 675.37850953L639.33538818 564.71871948H795.84606933A79.09909058 79.09909058 0 1 0 854.7734375 432.8885498Z" />
</svg>
