<?xml version="1.0" standalone="no"?><!DOCTYPE svg PUBLIC "-//W3C//DTD SVG 1.1//EN" "http://www.w3.org/Graphics/SVG/1.1/DTD/svg11.dtd"><svg t="1722569697807" class="icon" viewBox="0 0 1024 1024" version="1.1" xmlns="http://www.w3.org/2000/svg" p-id="59262" xmlns:xlink="http://www.w3.org/1999/xlink" width="200" height="200"><path d="M428.71128196 65.96121202s-104.23658475 115.46464129-166.07468725 199.92643986-194.39620304 323.93781077-67.53592229 495.71031777c90.32720124 76.08265188 208.47316947 135.23942747 419.62766591 123.84378796 211.15449641-11.22805655 267.46236213-157.69554058 290.08605818-267.46236212s19.77478619-332.31695745-281.53932855-487.16358814c-129.87677359-73.40132494-167.41535073-95.68985513-194.563786-64.85459533z" fill="#CC9966" p-id="59263"></path><path d="M807.11354619 267.39589827c59.65952438 137.75317147 21.95336431 361.30880498-47.42597025 444.76510594-71.72549562 86.13762791-52.11829237 168.92359714-260.25629596 131.55260293-184.00606116-33.3490038-283.55032374-115.63222425-353.09724123-196.7423641 7.70881495 35.35999901 21.28303258 82.28322044 45.07980914 114.45914369 90.32720124 76.08265188 208.47316947 135.23942747 419.6276659 123.84378798 211.15449641-11.22805655 258.4128837-164.7340238 280.7014139-274.66842828 21.11544964-103.90141886-12.23355417-230.59411673-84.6293815-343.20984816z" fill="#AA794D" p-id="59264"></path><path d="M396.20019284 134.67021482c-49.60454834 92.17061353-96.19260394 187.69288571-120.32454638 290.08605816-21.61819843 91.50028179-23.96435951 188.69838332 4.35715628 279.02558455 15.58521282 49.43696544 40.21990407 95.52227219 74.23923961 134.9042616 11.39563949 13.07146883 30.16492806-6.03298562 18.93687152-18.9368715-57.48094624-66.36284173-83.95904977-154.00871605-87.14312551-240.81667567-3.51924161-95.85743806 21.95336431-189.87146384 58.48644385-277.85250402 21.78578138-52.45345824 47.76113611-103.06350419 74.57440549-153.00321844 8.04398081-15.08246403-15.08246403-28.65668166-23.12644486-13.40663468z" fill="#BC8558" p-id="59265"></path><path d="M416.64531075 112.54926757c20.44511791 181.32473423-7.03848323 362.98463431-12.06597122 544.47695148-1.34066346 50.7776289-1.00549761 101.55525779 2.68132694 152.3328867 1.17308055 17.09345923 27.98634993 17.26104215 26.81326938 0-13.07146883-181.99506597 16.08796163-363.15221727 16.92587629-544.97970027 0.16758294-50.7776289-1.84341228-101.38767486-7.541232-151.83013791-0.83791468-7.20606615-5.53023681-13.40663469-13.4066347-13.40663468-6.5357344 0-14.24454937 6.20056854-13.40663469 13.40663468zM464.74161271 179.58244102c26.81326939 82.95355218 52.62104117 166.40985313 50.2748801 254.55847626-1.17308055 43.57156276-6.87090027 86.97554258-11.89838828 130.21193945-4.69232214 40.21990407-10.22255897 80.43980815-18.93687152 120.15696346-9.71981015 44.07431153-23.46161072 87.47829138-44.24189449 127.53061248-7.87639788 15.25004697 15.25004697 28.82426458 23.12644485 13.57421763C501.77744103 750.87266189 517.02748801 667.7515268 527.41762989 584.96555759c5.53023681-43.57156276 11.06047362-87.47829138 13.57421764-131.38502002 2.68132694-45.7501409-0.67033173-90.99753298-9.55222722-135.90975921-9.88739309-49.43696544-25.30502299-97.36568446-40.72265289-145.29440347-5.36265388-16.25554457-31.33800861-9.21706135-25.97535471 7.20606613z" fill="#BC8558" p-id="59266"></path><path d="M511.32966827 185.44784373c57.64852917 66.19525881 93.0085282 150.15430858 104.90691648 236.79468525 12.23355417 89.15412071-1.34066346 180.15165369-33.3490038 263.94312053-18.60170564 48.43146784-43.57156276 94.34919166-73.23374203 136.9152568-9.88739309 14.24454937 13.40663469 27.65118406 23.12644486 13.57421763 108.09099222-155.34937952 150.82464031-359.13022685 77.92606413-538.44396586-19.60720323-48.09630195-46.42047264-92.6733623-80.60739108-131.88776879-11.22805655-12.90388589-30.16492806 6.03298562-18.76928856 19.10445444z" fill="#BC8558" p-id="59267"></path><path d="M574.34085132 188.79950237c37.20341127 32.84625501 75.57990308 66.19525881 103.566253 107.75582635 27.98634993 41.39298462 44.2418945 89.15412071 51.61554357 138.25592029 15.25004697 103.23108714-11.8983883 209.98141589-48.26388489 306.1740198-17.42862511 46.42047264-41.22540169 94.01402578-81.61288869 124.68170266-5.69781977 4.35715626-8.71431257 11.56322243-4.85990509 18.26653975 3.35165866 5.69781977 12.56872002 9.21706135 18.26653978 4.8599051 39.04682355-29.66217926 64.85459532-70.71999801 83.79146683-115.29705837 21.28303258-49.93971424 37.70616007-102.72833833 49.10179957-155.68454539 22.79127899-104.90691649 21.61819843-219.70122603-32.84625502-315.22349823-29.82976221-52.45345824-75.24473721-93.17611111-119.98938048-132.72568345-12.56872002-11.39563949-31.67317446 7.54123201-18.76928858 18.93687149z" fill="#BC8558" p-id="59268"></path><path d="M662.82464031 210.58528376c62.00568545 63.34634892 126.18994905 128.871276 161.04719924 211.99241108 16.75829337 39.71715527 25.8077718 82.45080337 23.62919363 125.68720025-2.51374401 47.92871903-17.42862511 94.51677458-29.82976216 140.60208135-6.5357344 24.63469125-12.73630295 49.26938249-19.94236911 73.73649081-5.36265388 18.4341227-12.56872002 38.71165769-29.49459633 49.43696542-14.57971524 9.21706135-1.00549761 32.51108913 13.57421762 23.12644486 37.53857713-23.96435951 44.40947741-74.40682254 54.96720223-113.95639489 13.07146883-48.59905075 28.48909871-97.36568446 35.1924161-147.47298164 12.56872002-95.85743806-25.47260591-186.51980517-82.45080338-261.93212531-32.51108913-42.90123101-69.88208333-81.6128887-107.5882434-120.15696343-12.23355417-12.40113709-31.17042566 6.5357344-19.10445444 18.9368715z" fill="#BC8558" p-id="59269"></path><path d="M794.87999202 704.45218927c-40.72265287 1.17308055-74.57440548 29.15943044-109.76682153 49.77213129-71.72549562 41.89573343-160.20928459 54.63203637-240.14634395 32.34350622-40.89023583-11.39563949-79.09914469-31.50559152-120.15696345-42.39848224s-88.14862313-11.39563949-122.50312451 13.74180058c-3.01649281 2.17857813-6.03298562 4.69232214-8.71431255 7.20606614 89.82445245 74.23923962 207.46767188 131.38502 415.27050963 120.32454635 141.94274482-7.54123201 213.83582337-76.08265188 252.71506399-153.67355015-17.42862511-17.59620803-42.06331634-27.98634993-66.69800763-27.31601819z" fill="#FFCC66" p-id="59270"></path><path d="M324.47469723 243.76670463c-11.22805655 5.69781977-170.2642606 200.42918865-131.38501999 360.47089031 38.8792406 160.04170165 182.1626489 69.54691747 168.92359714 11.22805655-13.07146883-58.15127798 3.68682452-339.85818947 20.61270082-386.78141091 17.09345923-46.92322144-58.15127798 15.08246403-58.15127797 15.08246405z" fill="#E2AB81" p-id="59271"></path><path d="M373.57649679 211.92594723c0.33516586-3.68682452-5.69781977-1.17308055-7.20606616 2.01099521-13.9093835 30.16492806-27.81876699 60.49743906-35.02483315 92.84094525s-7.03848323 67.36833934 6.53573445 97.53326738c3.51924161 7.87639788 8.88189547 15.9203787 17.26104216 17.76379098 7.03848323 1.50824641 14.4121323-2.0109952 20.27753498-6.20056854 20.27753497-14.07696642 33.85175261-36.03033073 44.24189449-58.48644384 18.09895683-39.04682355 28.82426458-82.78596922 21.61819843-125.18445146-1.34066346-8.04398081-3.51924161-16.4231275-9.04947842-22.62369604-11.22805655-12.40113709-30.83525979-10.89289068-47.42597022-8.37914671-4.85990507 0.67033173-9.71981015 1.50824641-14.07696644 3.68682456" fill="#E5B080" p-id="59272"></path><path d="M575.68151477 103.16462327c-90.82995003-50.94521185-122.00037569-63.68151477-145.4619864-37.20341125 0 0-29.82976221 33.18142087-67.2007564 76.92056654 5.19507094-4.0219904 10.22255897-8.04398081 15.25004695-12.06597121 5.53023681-4.52473921 11.22805655-9.38464428 17.76379099-12.40113711 7.20606615-3.35165866 15.25004697-4.69232214 22.79127898-7.20606614 10.22255897-3.35165866 19.60720323-8.88189547 29.99734513-11.06047363 11.06047362-2.34616108 22.28853019-0.67033173 33.51658672 0.50274881 29.15943044 3.35165866 58.65402677 4.18957335 88.14862313 2.84890987 1.84341228-0.16758294 3.51924161-0.33516586 5.1950709-0.33516588z" fill="#E5B585" p-id="59273"></path><path d="M803.42672164 704.6197722c-40.21990407 72.22824441-111.77781676 134.06634694-246.17932955 141.27241309-169.92909475 9.04947843-279.52833334-27.48360111-362.98463432-81.6128887-0.33516586 0.33516586-0.67033173 0.50274881-0.83791467 0.67033173 89.82445245 74.23923962 207.46767188 131.38502 415.27050963 120.32454639 141.94274482-7.54123201 213.83582337-76.08265188 252.71506396-153.67355019-15.25004697-15.58521282-36.19791367-25.47260591-57.98369505-26.98085232z" fill="#DBAB56" p-id="59274"></path></svg>